<?xml version="1.0" encoding="UTF-8"?>
<svg width="1440px" height="1024px" viewBox="0 0 1440 1024" version="1.1" xmlns="http://www.w3.org/2000/svg" xmlns:xlink="http://www.w3.org/1999/xlink">
    <!-- Generator: Sketch 53.2 (72643) - https://sketchapp.com -->
    <title>Analytic</title>
    <desc>Created with Sketch.</desc>
    <defs>
        <linearGradient x1="50%" y1="7.26438915%" x2="50%" y2="151.05781%" id="linearGradient-1">
            <stop stop-color="#D0F6FF" offset="0%"></stop>
            <stop stop-color="#8BE2F7" offset="100%"></stop>
        </linearGradient>
        <linearGradient x1="50%" y1="0%" x2="50%" y2="100%" id="linearGradient-2">
            <stop stop-color="#FF9485" offset="0%"></stop>
            <stop stop-color="#FF676E" offset="100%"></stop>
        </linearGradient>
        <linearGradient x1="50%" y1="46.5667647%" x2="100%" y2="52.7031814%" id="linearGradient-3">
            <stop stop-color="#0F1752" offset="0%"></stop>
            <stop stop-color="#272884" offset="100%"></stop>
        </linearGradient>
        <linearGradient x1="8.38174197%" y1="31.3864763%" x2="56.5702499%" y2="50%" id="linearGradient-4">
            <stop stop-color="#CFE49F" offset="0%"></stop>
            <stop stop-color="#A9D386" offset="100%"></stop>
        </linearGradient>
        <linearGradient x1="44.725404%" y1="3.88170857%" x2="54.92545%" y2="56.9243345%" id="linearGradient-5">
            <stop stop-color="#77D791" offset="0%"></stop>
            <stop stop-color="#4FA67E" offset="100%"></stop>
        </linearGradient>
        <linearGradient x1="4.76643799%" y1="41.1577799%" x2="100%" y2="60.5739226%" id="linearGradient-6">
            <stop stop-color="#6EAE7C" offset="0%"></stop>
            <stop stop-color="#0F575D" offset="100%"></stop>
        </linearGradient>
        <linearGradient x1="50%" y1="0%" x2="50%" y2="100%" id="linearGradient-7">
            <stop stop-color="#FF9485" offset="0%"></stop>
            <stop stop-color="#FF676E" offset="100%"></stop>
        </linearGradient>
        <linearGradient x1="50%" y1="7.26438915%" x2="50%" y2="151.05781%" id="linearGradient-8">
            <stop stop-color="#D0F6FF" offset="0%"></stop>
            <stop stop-color="#8BE2F7" offset="100%"></stop>
        </linearGradient>
        <linearGradient x1="50%" y1="0%" x2="99.9767982%" y2="89.3678428%" id="linearGradient-9">
            <stop stop-color="#0F1752" offset="0%"></stop>
            <stop stop-color="#272884" offset="100%"></stop>
        </linearGradient>
        <linearGradient x1="50%" y1="7.26438915%" x2="50%" y2="100%" id="linearGradient-10">
            <stop stop-color="#55D0FF" offset="0%"></stop>
            <stop stop-color="#32A2FE" offset="100%"></stop>
        </linearGradient>
        <linearGradient x1="50%" y1="0%" x2="50%" y2="91.8482298%" id="linearGradient-11">
            <stop stop-color="#EAFCFF" offset="0%"></stop>
            <stop stop-color="#FFFFFF" offset="100%"></stop>
        </linearGradient>
        <linearGradient x1="50%" y1="0%" x2="50%" y2="143.743183%" id="linearGradient-12">
            <stop stop-color="#FFC8C0" offset="0%"></stop>
            <stop stop-color="#FF676E" offset="100%"></stop>
        </linearGradient>
        <linearGradient x1="50%" y1="61.9239585%" x2="50%" y2="100%" id="linearGradient-13">
            <stop stop-color="#FFA79A" offset="0%"></stop>
            <stop stop-color="#FF676E" offset="100%"></stop>
        </linearGradient>
        <linearGradient x1="50%" y1="0%" x2="50%" y2="143.743183%" id="linearGradient-14">
            <stop stop-color="#FFC8C0" offset="0%"></stop>
            <stop stop-color="#FF676E" offset="100%"></stop>
        </linearGradient>
        <linearGradient x1="50%" y1="0%" x2="50%" y2="100%" id="linearGradient-15">
            <stop stop-color="#FF9485" offset="0%"></stop>
            <stop stop-color="#FF676E" offset="100%"></stop>
        </linearGradient>
        <linearGradient x1="50%" y1="61.9239585%" x2="50%" y2="100%" id="linearGradient-16">
            <stop stop-color="#FFA79A" offset="0%"></stop>
            <stop stop-color="#FF676E" offset="100%"></stop>
        </linearGradient>
        <linearGradient x1="50%" y1="7.26438915%" x2="50%" y2="151.05781%" id="linearGradient-17">
            <stop stop-color="#D0F6FF" offset="0%"></stop>
            <stop stop-color="#8BE2F7" offset="100%"></stop>
        </linearGradient>
        <linearGradient x1="50%" y1="7.26438915%" x2="50%" y2="151.05781%" id="linearGradient-18">
            <stop stop-color="#D0F6FF" offset="0%"></stop>
            <stop stop-color="#8BE2F7" offset="100%"></stop>
        </linearGradient>
        <linearGradient x1="50%" y1="-2.48949813e-15%" x2="50%" y2="100%" id="linearGradient-19">
            <stop stop-color="#4DBCFA" offset="0%"></stop>
            <stop stop-color="#1486DB" offset="100%"></stop>
        </linearGradient>
        <linearGradient x1="50%" y1="0%" x2="50%" y2="100%" id="linearGradient-20">
            <stop stop-color="#052569" offset="0%"></stop>
            <stop stop-color="#021038" offset="100%"></stop>
        </linearGradient>
        <linearGradient x1="50%" y1="7.89618312%" x2="100%" y2="83.1507289%" id="linearGradient-21">
            <stop stop-color="#0F1752" offset="0%"></stop>
            <stop stop-color="#272884" offset="100%"></stop>
        </linearGradient>
        <linearGradient x1="50%" y1="0%" x2="50%" y2="69.6197333%" id="linearGradient-22">
            <stop stop-color="#4DBCFA" offset="0%"></stop>
            <stop stop-color="#1486DB" offset="100%"></stop>
        </linearGradient>
        <linearGradient x1="50%" y1="0%" x2="50%" y2="100%" id="linearGradient-23">
            <stop stop-color="#052569" offset="0%"></stop>
            <stop stop-color="#021038" offset="100%"></stop>
        </linearGradient>
        <linearGradient x1="50%" y1="0%" x2="100%" y2="89.3678428%" id="linearGradient-24">
            <stop stop-color="#0F1752" offset="0%"></stop>
            <stop stop-color="#272884" offset="100%"></stop>
        </linearGradient>
        <linearGradient x1="50%" y1="7.9980539%" x2="100%" y2="83.0705203%" id="linearGradient-25">
            <stop stop-color="#0F1752" offset="0%"></stop>
            <stop stop-color="#272884" offset="100%"></stop>
        </linearGradient>
        <linearGradient x1="50%" y1="114.0151%" x2="50.9350565%" y2="25.9019529%" id="linearGradient-26">
            <stop stop-color="#2B3389" offset="0%"></stop>
            <stop stop-color="#444FB7" offset="100%"></stop>
        </linearGradient>
        <linearGradient x1="50%" y1="0%" x2="50%" y2="100%" id="linearGradient-27">
            <stop stop-color="#FF9485" offset="0%"></stop>
            <stop stop-color="#FF676E" offset="100%"></stop>
        </linearGradient>
        <linearGradient x1="50%" y1="0%" x2="50%" y2="100%" id="linearGradient-28">
            <stop stop-color="#48137B" offset="0%"></stop>
            <stop stop-color="#300C59" offset="100%"></stop>
        </linearGradient>
    </defs>
    <g id="Analytic" stroke="none" stroke-width="1" fill="none" fill-rule="evenodd">
        <rect fill="#FFFFFF" x="0" y="0" width="1440" height="1024"></rect>
        <g id="Screen-2" transform="translate(137.000000, 94.000000)">
            <path d="M30,2.84217094e-14 L652,2.13162821e-14 C668.568542,1.82726902e-14 682,13.4314575 682,30 L682,432 C682,448.568542 668.568542,462 652,462 L30,462 C13.4314575,462 2.84217094e-14,448.568542 0,432 L0,30 C0,13.4314575 13.4314575,3.14653013e-14 30,2.84217094e-14 Z" id="Shape" fill="url(#linearGradient-1)"></path>
            <path d="M51,372 L150,372 L150,390 L51,390 L51,372 Z M180,372 L279,372 L279,390 L180,390 L180,372 Z" id="Combined-Shape" fill="#3B97FC"></path>
            <path d="M50,44 L52.2267477,44 L52.2267477,330 L50,330 L50,44 Z M99.1740113,44 L101.400759,44 L101.400759,330 L99.1740113,330 L99.1740113,44 Z M147.420211,44 L149.646959,44 L149.646959,330 L147.420211,330 L147.420211,44 Z M195.666411,44 L197.893158,44 L197.893158,330 L195.666411,330 L195.666411,44 Z M243.91261,44 L246.139358,44 L246.139358,330 L243.91261,330 L243.91261,44 Z M292.15881,44 L294.385558,44 L294.385558,330 L292.15881,330 L292.15881,44 Z M340.40501,44 L342.631758,44 L342.631758,330 L340.40501,330 L340.40501,44 Z M388.65121,44 L390.877957,44 L390.877957,330 L388.65121,330 L388.65121,44 Z M436.897409,44 L439.124157,44 L439.124157,330 L436.897409,330 L436.897409,44 Z M485.143609,44 L487.370357,44 L487.370357,330 L485.143609,330 L485.143609,44 Z M533.389809,44 L535.616557,44 L535.616557,330 L533.389809,330 L533.389809,44 Z M581.636009,44 L583.862756,44 L583.862756,330 L581.636009,330 L581.636009,44 Z M629.882208,44 L632.108956,44 L632.108956,330 L629.882208,330 L629.882208,44 Z" id="Shape" fill="#0B3B85"></path>
            <path d="M50.3353324,272.768376 L50.3353324,262.768376 C97.6233205,262.768376 134.404041,244.537469 161.161609,207.885841 C165.323165,202.18548 169.494404,196.128738 174.010165,189.280032 C178.748262,182.094127 194.168808,157.784718 196.464586,154.249388 C211.696765,130.792962 223.066656,116.337512 236.403377,105.117961 C252.970246,91.1810402 271.338458,84.031835 293.274257,84.031835 C306.848637,84.031835 319.030382,86.7446045 330.900457,92.0143097 C340.347504,96.2083142 348.766565,101.470461 360.799516,110.171606 C362.875279,111.672611 369.991654,116.883976 370.344809,117.141335 C385.004652,127.824589 394.407883,133.738158 405.78575,138.702827 C420.308996,145.039964 435.786116,148.332541 453.814838,148.332541 C471.803612,148.332541 489.088247,144.084558 506.719803,135.9468 C520.915112,129.395026 534.269071,121.008264 552.02586,108.173244 C555.659268,105.546932 569.403256,95.4310397 572.657365,93.0791156 C580.493697,87.415365 586.613848,83.2495872 592.466057,79.6919165 C607.277146,70.6879704 619.740299,66.1184264 631.969644,66.1184264 L631.969644,76.1184264 C621.90321,76.1184264 611.048055,80.098407 597.660685,88.2368472 C592.075808,91.6320016 586.154808,95.6622245 578.515109,101.183857 C575.307734,103.502004 561.563986,113.617719 557.883966,116.277724 C539.648466,129.458767 525.811599,138.148813 510.910434,145.026371 C492.032066,153.739588 473.343785,158.332541 453.814838,158.332541 C434.396294,158.332541 417.559247,154.750655 401.786453,147.868285 C389.581485,142.542715 379.658851,136.302501 364.455325,125.223041 C364.080738,124.950064 356.98662,119.754998 354.939884,118.274983 C343.42421,109.947885 335.51325,105.003317 326.842856,101.154106 C316.220148,96.4381674 305.414465,94.031835 293.274257,94.031835 C273.774145,94.031835 257.659942,100.303743 242.840916,112.770287 C230.447811,123.196019 219.585682,137.00591 204.851391,159.695627 C202.6027,163.158443 187.156394,187.508461 182.358715,194.78473 C177.760967,201.75778 173.501746,207.942275 169.238282,213.782226 C140.575863,253.043056 100.780175,272.768376 50.3353324,272.768376 Z" id="Shape" fill="url(#linearGradient-2)"></path>
            <path d="M50.0337048,202.768376 L50.0337048,192.768376 C84.4105462,192.768376 115.720588,176.030131 144.172999,142.178519 C149.141495,136.267189 154.281673,132.237373 159.711766,130.029923 C171.358488,125.29528 183.026262,128.98164 196.662902,139.691498 C201.847481,143.76333 207.240386,148.727881 214.488506,155.928473 C215.744169,157.175903 229.306581,170.873145 233.529543,175.000585 C247.626939,188.779102 259.150877,198.314075 271.403315,205.58111 C286.384268,214.46645 301.433792,219.111258 317.385744,219.111258 C338.655697,219.111258 354.871432,212.070695 368.642355,198.289221 C379.371998,187.551357 386.629351,176.047921 400.299393,150.435802 C400.531225,150.001441 400.839866,149.422991 401.380731,148.409325 C412.168345,128.194058 417.633164,118.915975 425.322942,109.017618 C435.615301,95.7691937 446.925957,86.5978346 460.626226,81.3721772 C478.564345,74.5300877 496.870257,75.1990519 516.536122,82.1757583 C531.414784,87.4541462 544.684192,94.9466632 566.607547,109.309901 C590.467888,124.942169 592.638736,126.319261 601.547907,130.999392 C613.478628,137.266793 623.318208,140.39561 632.136859,140.39561 L632.136859,150.39561 C621.423173,150.39561 610.135035,146.806177 596.897374,139.852219 C587.564598,134.949561 585.375179,133.560689 561.127375,117.674572 C539.842099,103.729376 527.097425,96.5331474 513.192663,91.6002629 C495.628828,85.3692769 479.729857,84.7882711 464.190054,90.7155773 C452.362214,95.2270393 442.464847,103.252419 433.219921,115.152577 C425.996601,124.450504 420.722164,133.40536 410.203148,153.117293 C409.662692,154.130192 409.353658,154.70938 409.121456,155.144431 C394.9859,181.628737 387.379779,193.684994 375.71613,205.357581 C360.110369,220.975299 341.37173,229.111258 317.385744,229.111258 C299.517745,229.111258 282.745128,223.934644 266.302003,214.182075 C253.234251,206.431471 241.157449,196.439055 226.53982,182.152073 C222.246037,177.955413 208.643046,164.217189 207.440735,163.022762 C200.445334,156.073232 195.299376,151.336011 190.486343,147.555982 C179.374888,138.829339 171.072513,136.206255 163.477695,139.293712 C159.683653,140.836071 155.815643,143.868528 151.828148,148.612701 C121.587874,184.591444 87.5866705,202.768376 50.0337048,202.768376 Z" id="Shape" fill="url(#linearGradient-3)"></path>
        </g>
        <g id="Plant" transform="translate(1088.372997, 606.763146)">
            <path d="M39.4981201,164.85314 C63.4566962,71.748516 121.682551,39.0261602 214.175686,66.686073 C206.306031,108.785983 187.576224,141.226961 157.986264,164.009006 C128.396305,186.791051 88.9002567,187.07243 39.4981201,164.85314 Z" id="Shape" fill="url(#linearGradient-4)"></path>
            <path d="M110.90666,123.31975 L114.182626,91.2147532 C114.317975,89.8883075 116.307644,90.0913315 116.172294,91.4177773 L113.04009,122.113892 C137.314607,108.396862 167.641093,91.3752098 204.021245,71.0479371 C204.503374,70.7785492 205.112599,70.9510101 205.381987,71.4331393 C205.651375,71.9152686 205.478914,72.5244936 204.996785,72.7938815 C185.072124,83.9267104 166.963277,94.0680217 150.670521,103.217651 L178.847155,109.94056 C179.38436,110.068737 179.715944,110.608135 179.587767,111.14534 C179.459591,111.682545 178.920192,112.014128 178.382987,111.885952 L148.101203,104.660756 C135.046861,111.994186 123.186404,118.675692 112.519979,124.705186 C112.425529,124.787184 112.316344,124.847239 112.199917,124.886116 C100.139932,131.70388 89.6132281,137.684383 80.6200223,142.827497 L106.833213,152.40034 C107.351987,152.589792 107.618955,153.163922 107.429503,153.682696 C107.240051,154.20147 106.66592,154.468438 106.147147,154.278986 L78.4735497,144.172815 C78.4334076,144.158155 78.3947731,144.141192 78.3577411,144.12213 C64.2878892,152.17938 54.1992515,158.062628 48.0927331,161.771343 C47.6206877,162.058034 47.0056105,161.907774 46.7189198,161.435729 C46.4322291,160.963683 46.5824889,160.348606 47.0545343,160.061915 C57.2599898,153.863764 78.5426306,141.617201 110.90666,123.31975 Z" id="Shape" fill="#FFFFFF" fill-rule="nonzero"></path>
            <path d="M50.2925002,192.93029 C1.39886056,110.154107 19.4325579,45.8440106 104.393592,5.68434189e-14 C128.598038,35.3338181 138.293299,71.5170271 133.479377,108.549627 C128.665455,145.582227 100.936496,173.709114 50.2925002,192.93029 Z" id="Shape" fill="url(#linearGradient-5)" fill-rule="nonzero"></path>
            <path d="M71.4174312,113.068298 L51.0322176,88.0501669 C50.1899853,87.0165217 51.7404532,85.7531732 52.5826855,86.7868184 L72.0733233,110.707065 C79.5385941,83.8429829 88.9465331,50.3627908 100.297634,10.2645827 C100.448065,9.73317982 101.0008,9.42434098 101.532203,9.57477183 C102.063606,9.72520267 102.372445,10.2779381 102.222014,10.809341 C96.0052518,32.7702963 90.3713544,52.7461701 85.3204025,70.7366492 L109.99809,55.5665848 C110.468586,55.2773579 111.084463,55.4243053 111.37369,55.8948011 C111.662917,56.3652968 111.515969,56.9811737 111.045474,57.2704006 L84.5240498,73.5738611 C80.4787456,87.9902222 76.8166666,101.101395 73.537856,112.907212 C73.5290457,113.031934 73.4943191,113.151562 73.4395101,113.261343 C69.7326936,126.609949 66.518039,138.282324 63.7956093,148.278225 L89.1001411,136.51173 C89.6009325,136.278864 90.1956791,136.496061 90.4285449,136.996852 C90.6614106,137.497643 90.444214,138.09239 89.9434227,138.325256 L63.2290923,150.747301 C63.1903464,150.765318 63.151038,150.78064 63.1113783,150.793346 C58.8598251,166.439575 55.8861651,177.733407 54.1906615,184.673826 C54.0595959,185.210334 53.518421,185.539009 52.9819135,185.407944 C52.4454061,185.276878 52.1167305,184.735703 52.2477961,184.199196 C55.0813881,172.600095 61.4708588,148.89137 71.4174312,113.068298 L71.4174312,113.068298 Z" id="Shape" fill="#FFFFFF" fill-rule="nonzero"></path>
            <path d="M-2.27373675e-13,227.324394 C47.2394574,143.593169 111.950484,127.05576 194.133079,177.712169 C175.635317,216.340743 149.14737,242.82869 114.669237,257.176011 C80.1911033,271.523332 41.9680244,261.572793 -2.27373675e-13,227.324394 Z" id="Shape" fill="url(#linearGradient-6)"></path>
            <path d="M79.7249871,205.688105 L91.1987099,175.524946 C91.6727567,174.278729 93.5420825,174.9898 93.0680357,176.236017 L82.097821,205.075508 C109.095432,198.108582 142.794094,189.516001 183.195706,179.29724 C183.731129,179.161816 184.274959,179.486079 184.410384,180.021503 C184.545808,180.556927 184.221545,181.100757 183.686121,181.236181 C161.558988,186.832787 141.442419,191.941627 123.336727,196.562615 L148.813254,210.349099 C149.298979,210.611947 149.479657,211.218786 149.21681,211.704511 C148.953962,212.190237 148.347123,212.370915 147.861397,212.108067 L120.481453,197.291559 C105.973905,200.996393 92.78829,204.380518 80.9247726,207.443887 C80.8123068,207.498654 80.6912845,207.528407 80.5687493,207.535824 C67.1551379,210.999923 55.4392605,214.052132 45.4213591,216.692384 L68.2637271,232.723517 C68.7157905,233.040782 68.825066,233.664446 68.5078008,234.116509 C68.1905357,234.568573 67.5668717,234.677848 67.1148084,234.360583 L42.9998362,217.436317 C42.9648547,217.411766 42.9319258,217.385381 42.9010882,217.357383 C27.2252857,221.498542 15.9577136,224.570192 9.09938382,226.572052 C8.56922192,226.7268 8.01399309,226.422467 7.85924551,225.892305 C7.70449794,225.362143 8.00883137,224.806914 8.53899326,224.652166 C20.0009063,221.306578 43.728004,214.985659 79.7249871,205.688105 Z" id="Shape" fill="#FFFFFF" fill-rule="nonzero"></path>
        </g>
        <g id="Data" transform="translate(950.000000, 142.016802)">
            <path d="M209.64053,417.324765 C209.64053,419.711644 207.706281,421.646592 205.320265,421.646592 C202.934248,421.646592 201,419.711644 201,417.324765 C201,414.937886 202.934248,413.002938 205.320265,413.002938 C207.706281,413.002938 209.64053,414.937886 209.64053,417.324765 Z M209.64053,391.920817 C209.64053,394.307696 207.706281,396.242644 205.320265,396.242644 C202.934248,396.242644 201,394.307696 201,391.920817 C201,389.533938 202.934248,387.59899 205.320265,387.59899 C207.706281,387.59899 209.64053,389.533938 209.64053,391.920817 Z M209.64053,366.516869 C209.64053,368.903748 207.706281,370.838696 205.320265,370.838696 C202.934248,370.838696 201,368.903748 201,366.516869 C201,364.12999 202.934248,362.195042 205.320265,362.195042 C207.706281,362.195042 209.64053,364.12999 209.64053,366.516869 Z M209.64053,341.112921 C209.64053,343.499801 207.706281,345.434749 205.320265,345.434749 C202.934248,345.434749 201,343.499801 201,341.112921 C201,338.726042 202.934248,336.791094 205.320265,336.791094 C207.706281,336.791094 209.64053,338.726042 209.64053,341.112921 Z M209.64053,315.708973 C209.64053,318.095853 207.706281,320.030801 205.320265,320.030801 C202.934248,320.030801 201,318.095853 201,315.708973 C201,313.322094 202.934248,311.387146 205.320265,311.387146 C207.706281,311.387146 209.64053,313.322094 209.64053,315.708973 Z M209.64053,290.305025 C209.64053,292.691905 207.706281,294.626853 205.320265,294.626853 C202.934248,294.626853 201,292.691905 201,290.305025 C201,287.918146 202.934248,285.983198 205.320265,285.983198 C207.706281,285.983198 209.64053,287.918146 209.64053,290.305025 Z M235.036816,417.324765 C235.036816,419.711644 233.102568,421.646592 230.716551,421.646592 C228.330535,421.646592 226.396287,419.711644 226.396287,417.324765 C226.396287,414.937886 228.330535,413.002938 230.716551,413.002938 C233.102568,413.002938 235.036816,414.937886 235.036816,417.324765 Z M235.036816,391.920817 C235.036816,394.307696 233.102568,396.242644 230.716551,396.242644 C228.330535,396.242644 226.396287,394.307696 226.396287,391.920817 C226.396287,389.533938 228.330535,387.59899 230.716551,387.59899 C233.102568,387.59899 235.036816,389.533938 235.036816,391.920817 Z M235.036816,366.516869 C235.036816,368.903748 233.102568,370.838696 230.716551,370.838696 C228.330535,370.838696 226.396287,368.903748 226.396287,366.516869 C226.396287,364.12999 228.330535,362.195042 230.716551,362.195042 C233.102568,362.195042 235.036816,364.12999 235.036816,366.516869 Z M235.036816,341.112921 C235.036816,343.499801 233.102568,345.434749 230.716551,345.434749 C228.330535,345.434749 226.396287,343.499801 226.396287,341.112921 C226.396287,338.726042 228.330535,336.791094 230.716551,336.791094 C233.102568,336.791094 235.036816,338.726042 235.036816,341.112921 Z M235.036816,315.708973 C235.036816,318.095853 233.102568,320.030801 230.716551,320.030801 C228.330535,320.030801 226.396287,318.095853 226.396287,315.708973 C226.396287,313.322094 228.330535,311.387146 230.716551,311.387146 C233.102568,311.387146 235.036816,313.322094 235.036816,315.708973 Z M235.036816,290.305025 C235.036816,292.691905 233.102568,294.626853 230.716551,294.626853 C228.330535,294.626853 226.396287,292.691905 226.396287,290.305025 C226.396287,287.918146 228.330535,285.983198 230.716551,285.983198 C233.102568,285.983198 235.036816,287.918146 235.036816,290.305025 Z M260.433103,417.324765 C260.433103,419.711644 258.498855,421.646592 256.112838,421.646592 C253.726822,421.646592 251.792573,419.711644 251.792573,417.324765 C251.792573,414.937886 253.726822,413.002938 256.112838,413.002938 C258.498855,413.002938 260.433103,414.937886 260.433103,417.324765 Z M260.433103,391.920817 C260.433103,394.307696 258.498855,396.242644 256.112838,396.242644 C253.726822,396.242644 251.792573,394.307696 251.792573,391.920817 C251.792573,389.533938 253.726822,387.59899 256.112838,387.59899 C258.498855,387.59899 260.433103,389.533938 260.433103,391.920817 Z M260.433103,366.516869 C260.433103,368.903748 258.498855,370.838696 256.112838,370.838696 C253.726822,370.838696 251.792573,368.903748 251.792573,366.516869 C251.792573,364.12999 253.726822,362.195042 256.112838,362.195042 C258.498855,362.195042 260.433103,364.12999 260.433103,366.516869 Z M260.433103,341.112921 C260.433103,343.499801 258.498855,345.434749 256.112838,345.434749 C253.726822,345.434749 251.792573,343.499801 251.792573,341.112921 C251.792573,338.726042 253.726822,336.791094 256.112838,336.791094 C258.498855,336.791094 260.433103,338.726042 260.433103,341.112921 Z M260.433103,315.708973 C260.433103,318.095853 258.498855,320.030801 256.112838,320.030801 C253.726822,320.030801 251.792573,318.095853 251.792573,315.708973 C251.792573,313.322094 253.726822,311.387146 256.112838,311.387146 C258.498855,311.387146 260.433103,313.322094 260.433103,315.708973 Z M260.433103,290.305025 C260.433103,292.691905 258.498855,294.626853 256.112838,294.626853 C253.726822,294.626853 251.792573,292.691905 251.792573,290.305025 C251.792573,287.918146 253.726822,285.983198 256.112838,285.983198 C258.498855,285.983198 260.433103,287.918146 260.433103,290.305025 Z M285.82939,417.324765 C285.82939,419.711644 283.895141,421.646592 281.509125,421.646592 C279.123109,421.646592 277.18886,419.711644 277.18886,417.324765 C277.18886,414.937886 279.123109,413.002938 281.509125,413.002938 C283.895141,413.002938 285.82939,414.937886 285.82939,417.324765 Z M285.82939,391.920817 C285.82939,394.307696 283.895141,396.242644 281.509125,396.242644 C279.123109,396.242644 277.18886,394.307696 277.18886,391.920817 C277.18886,389.533938 279.123109,387.59899 281.509125,387.59899 C283.895141,387.59899 285.82939,389.533938 285.82939,391.920817 Z M285.82939,366.516869 C285.82939,368.903748 283.895141,370.838696 281.509125,370.838696 C279.123109,370.838696 277.18886,368.903748 277.18886,366.516869 C277.18886,364.12999 279.123109,362.195042 281.509125,362.195042 C283.895141,362.195042 285.82939,364.12999 285.82939,366.516869 Z M285.82939,341.112921 C285.82939,343.499801 283.895141,345.434749 281.509125,345.434749 C279.123109,345.434749 277.18886,343.499801 277.18886,341.112921 C277.18886,338.726042 279.123109,336.791094 281.509125,336.791094 C283.895141,336.791094 285.82939,338.726042 285.82939,341.112921 Z M285.82939,315.708973 C285.82939,318.095853 283.895141,320.030801 281.509125,320.030801 C279.123109,320.030801 277.18886,318.095853 277.18886,315.708973 C277.18886,313.322094 279.123109,311.387146 281.509125,311.387146 C283.895141,311.387146 285.82939,313.322094 285.82939,315.708973 Z M285.82939,290.305025 C285.82939,292.691905 283.895141,294.626853 281.509125,294.626853 C279.123109,294.626853 277.18886,292.691905 277.18886,290.305025 C277.18886,287.918146 279.123109,285.983198 281.509125,285.983198 C283.895141,285.983198 285.82939,287.918146 285.82939,290.305025 Z M311.225676,417.324765 C311.225676,419.711644 309.291428,421.646592 306.905412,421.646592 C304.519395,421.646592 302.585147,419.711644 302.585147,417.324765 C302.585147,414.937886 304.519395,413.002938 306.905412,413.002938 C309.291428,413.002938 311.225676,414.937886 311.225676,417.324765 Z M311.225676,391.920817 C311.225676,394.307696 309.291428,396.242644 306.905412,396.242644 C304.519395,396.242644 302.585147,394.307696 302.585147,391.920817 C302.585147,389.533938 304.519395,387.59899 306.905412,387.59899 C309.291428,387.59899 311.225676,389.533938 311.225676,391.920817 Z M311.225676,366.516869 C311.225676,368.903748 309.291428,370.838696 306.905412,370.838696 C304.519395,370.838696 302.585147,368.903748 302.585147,366.516869 C302.585147,364.12999 304.519395,362.195042 306.905412,362.195042 C309.291428,362.195042 311.225676,364.12999 311.225676,366.516869 Z M311.225676,341.112921 C311.225676,343.499801 309.291428,345.434749 306.905412,345.434749 C304.519395,345.434749 302.585147,343.499801 302.585147,341.112921 C302.585147,338.726042 304.519395,336.791094 306.905412,336.791094 C309.291428,336.791094 311.225676,338.726042 311.225676,341.112921 Z M311.225676,315.708973 C311.225676,318.095853 309.291428,320.030801 306.905412,320.030801 C304.519395,320.030801 302.585147,318.095853 302.585147,315.708973 C302.585147,313.322094 304.519395,311.387146 306.905412,311.387146 C309.291428,311.387146 311.225676,313.322094 311.225676,315.708973 Z M311.225676,290.305025 C311.225676,292.691905 309.291428,294.626853 306.905412,294.626853 C304.519395,294.626853 302.585147,292.691905 302.585147,290.305025 C302.585147,287.918146 304.519395,285.983198 306.905412,285.983198 C309.291428,285.983198 311.225676,287.918146 311.225676,290.305025 Z M336.621963,417.324765 C336.621963,419.711644 334.687715,421.646592 332.301698,421.646592 C329.915682,421.646592 327.981433,419.711644 327.981433,417.324765 C327.981433,414.937886 329.915682,413.002938 332.301698,413.002938 C334.687715,413.002938 336.621963,414.937886 336.621963,417.324765 Z M336.621963,391.920817 C336.621963,394.307696 334.687715,396.242644 332.301698,396.242644 C329.915682,396.242644 327.981433,394.307696 327.981433,391.920817 C327.981433,389.533938 329.915682,387.59899 332.301698,387.59899 C334.687715,387.59899 336.621963,389.533938 336.621963,391.920817 Z M336.621963,366.516869 C336.621963,368.903748 334.687715,370.838696 332.301698,370.838696 C329.915682,370.838696 327.981433,368.903748 327.981433,366.516869 C327.981433,364.12999 329.915682,362.195042 332.301698,362.195042 C334.687715,362.195042 336.621963,364.12999 336.621963,366.516869 Z M336.621963,341.112921 C336.621963,343.499801 334.687715,345.434749 332.301698,345.434749 C329.915682,345.434749 327.981433,343.499801 327.981433,341.112921 C327.981433,338.726042 329.915682,336.791094 332.301698,336.791094 C334.687715,336.791094 336.621963,338.726042 336.621963,341.112921 Z M336.621963,315.708973 C336.621963,318.095853 334.687715,320.030801 332.301698,320.030801 C329.915682,320.030801 327.981433,318.095853 327.981433,315.708973 C327.981433,313.322094 329.915682,311.387146 332.301698,311.387146 C334.687715,311.387146 336.621963,313.322094 336.621963,315.708973 Z M336.621963,290.305025 C336.621963,292.691905 334.687715,294.626853 332.301698,294.626853 C329.915682,294.626853 327.981433,292.691905 327.981433,290.305025 C327.981433,287.918146 329.915682,285.983198 332.301698,285.983198 C334.687715,285.983198 336.621963,287.918146 336.621963,290.305025 Z" id="Shape" fill="url(#linearGradient-7)"></path>
            <path d="M166.5,333.077289 C74.5418537,333.077289 2.27373675e-13,258.512663 2.27373675e-13,166.538644 C2.27373675e-13,74.5646254 74.5418537,0 166.5,0 C258.458146,0 333,74.5646254 333,166.538644 C333,258.512663 258.458146,333.077289 166.5,333.077289 Z M166.5,253.077289 C214.269895,253.077289 253,214.335352 253,166.538644 C253,118.741936 214.269895,80 166.5,80 C118.730105,80 80,118.741936 80,166.538644 C80,214.335352 118.730105,253.077289 166.5,253.077289 Z" id="Shape" fill="url(#linearGradient-8)"></path>
            <path d="M2.27373675e-13,166.538644 L80,166.538644 C80,214.335352 118.730105,253.077289 166.5,253.077289 C214.269895,253.077289 253,214.335352 253,166.538644 C253,118.741936 214.269895,80 166.5,80 L166.5,0 C258.458146,0 333,74.5646254 333,166.538644 C333,258.512663 258.458146,333.077289 166.5,333.077289 C74.5418537,333.077289 2.27373675e-13,258.512663 2.27373675e-13,166.538644 Z" id="Shape" fill="#52D7FD" fill-rule="nonzero"></path>
            <path d="M333,166.538644 L253,166.538644 C253,118.741936 214.269895,80 166.5,80 L166.5,2.84217094e-14 C258.458146,2.84217094e-14 333,74.5646254 333,166.538644 Z" id="Shape" fill="url(#linearGradient-9)"></path>
        </g>
        <g id="Screen-1" transform="translate(374.000000, 235.000000)">
            <path d="M30,0 L500,0 C516.568542,2.84217094e-14 530,13.4314575 530,30 L530,611.003812 C530,627.572354 516.568542,641.003812 500,641.003812 L30,641.003812 C13.4314575,641.003812 2.02906125e-15,627.572354 0,611.003812 L0,30 C-2.02906125e-15,13.4314575 13.4314575,0 30,0 Z" id="Shape" fill="url(#linearGradient-10)"></path>
            <path d="M50,20 L740,20 C756.568542,20 770,33.4314575 770,50 L770,590 C770,606.568542 756.568542,620 740,620 L50,620 C33.4314575,620 20,606.568542 20,590 L20,50 C20,33.4314575 33.4314575,20 50,20 Z" id="Shape" fill="url(#linearGradient-11)"></path>
            <polygon id="Shape" fill="url(#linearGradient-12)" points="330 215 410 215 410 300 330 300"></polygon>
            <polygon id="Shape" fill="url(#linearGradient-13)" points="410 172 490 172 490 300 410 300"></polygon>
            <polygon id="Shape" fill="url(#linearGradient-14)" points="650 132 730 132 730 300 650 300"></polygon>
            <polygon id="Shape" fill="url(#linearGradient-15)" points="490 129 570 129 570 300 490 300"></polygon>
            <polygon id="Shape" fill="url(#linearGradient-16)" points="570 79 650 79 650 300 570 300"></polygon>
            <polygon id="Shape" fill="#FFFFFF" points="60 340 730 340 730 580 60 580"></polygon>
            <path d="M65,60 L255,60 C257.761424,60 260,62.2385763 260,65 L260,85 C260,87.7614237 257.761424,90 255,90 L65,90 C62.2385763,90 60,87.7614237 60,85 L60,65 C60,62.2385763 62.2385763,60 65,60 Z M65,130 L255,130 C257.761424,130 260,132.238576 260,135 L260,155 C260,157.761424 257.761424,160 255,160 L65,160 C62.2385763,160 60,157.761424 60,155 L60,135 C60,132.238576 62.2385763,130 65,130 Z M65,200 L255,200 C257.761424,200 260,202.238576 260,205 L260,225 C260,227.761424 257.761424,230 255,230 L65,230 C62.2385763,230 60,227.761424 60,225 L60,205 C60,202.238576 62.2385763,200 65,200 Z M65,270 L255,270 C257.761424,270 260,272.238576 260,275 L260,295 C260,297.761424 257.761424,300 255,300 L65,300 C62.2385763,300 60,297.761424 60,295 L60,275 C60,272.238576 62.2385763,270 65,270 Z" id="Shape" fill="url(#linearGradient-17)"></path>
            <path d="M95,548.545075 L694.740322,548.545075 C656.826121,445.895865 609.087425,413.359965 551.524232,450.937377 C465.179444,507.303494 442.846741,495.885937 382.811704,465.887624 C322.776667,435.88931 293.407574,434.817917 248.726487,475.909113 C218.939096,503.303243 167.696934,527.515231 95,548.545075 Z" id="Shape" fill="url(#linearGradient-18)"></path>
            <path d="M95,548.545075 L694.740322,548.545075 C667.685675,524.36303 644.535314,503.704628 625.289238,486.569867 C596.420125,460.867727 513.428596,364.131313 427.083808,420.49743 C340.73902,476.863547 326.780766,509.431702 266.745729,479.433388 C206.710692,449.435075 190.892612,456.093374 155.351571,486.569867 C131.657544,506.887529 111.540353,527.545932 95,548.545075 Z" id="Shape" fill="url(#linearGradient-19)"></path>
        </g>
        <g id="Women" transform="translate(97.673059, 361.000000)">
            <path d="M214.571928,501.790674 C219.859186,500.419983 225.899197,500.316738 232.691961,501.480938 C242.881264,503.227091 254.510618,506.01787 250.677858,511.689917 C246.844791,517.361954 230.186021,517.022549 221.981248,515.469844 C213.776475,513.917139 212.789397,514.611198 204.90655,514.873582 C197.023703,515.135966 195.657491,514.594916 195.813532,510.128668 C195.969494,505.662494 196.162332,500.133162 196.248587,497.670307 C196.334843,495.207452 196.778235,493.07543 202.440707,495.362827 C206.215692,496.887657 210.259433,499.030273 214.571928,501.790674 Z" id="Shape" fill="url(#linearGradient-20)"></path>
            <path d="M197.078697,474.92703 L218.693429,475.681833 L217.91523,497.966542 L230.497196,501.143263 C221.178093,505.093747 210.648135,505.057724 201.356279,501.043573 L196.243814,498.83495 L197.078697,474.92703 Z" id="Shape" fill="#F4B696"></path>
            <path d="M89.2378614,403.920475 L77.8363695,400.003011 L111.047813,297.715492 L118.834057,345.202128 L202.728902,339.174545 C204.644778,339.036895 206.569342,339.079238 208.47731,339.301016 C225.330029,341.259941 237.403835,356.509791 235.44491,373.36251 L222.842527,481.78138 L192.849242,481.78138 L187.841517,386.748436 L89.2378614,403.920475 Z" id="Shape" fill="#0C1452"></path>
            <path d="M265.02182,270.206176 C273.290908,262.882956 285.930972,263.649734 293.254192,271.918823 C300.577412,280.187911 299.810634,292.827975 291.541546,300.151195 L188.706146,391.223658 C180.437058,398.546879 167.796994,397.780101 160.473774,389.511012 C153.150554,381.241924 153.917332,368.60186 162.18642,361.27864 L265.02182,270.206176 Z" id="Shape" fill="url(#linearGradient-21)"></path>
            <path d="M272.02182,272.206176 C280.290908,264.882956 292.930972,265.649734 300.254192,273.918823 C307.577412,282.187911 306.810634,294.827975 298.541546,302.151195 L195.706146,393.223658 C187.437058,400.546879 174.796994,399.780101 167.473774,391.511012 C160.150554,383.241924 160.917332,370.60186 169.18642,363.27864 L272.02182,272.206176 Z" id="Shape" fill="url(#linearGradient-22)"></path>
            <circle id="Shape" fill="#FFEBF7" opacity="0.5" cx="383.326941" cy="170" r="141"></circle>
            <path d="M151.796814,227.637184 L197.267369,263.549035 L253.62617,251.161907 L262.822714,279.458881 L206.873853,296.838882 C197.65179,299.703631 187.733873,299.380773 178.717649,295.922313 L145.792921,283.292982 L151.796814,227.637184 Z" id="Shape" fill="#221E41"></path>
            <path d="M17.7174862,508.551938 C19.271865,513.788139 19.5858409,519.820867 18.6594137,526.650123 C17.2699259,536.894159 14.8867056,548.613826 9.08435264,544.981352 C3.28199861,541.348571 3.03981456,524.688104 4.30523137,516.434141 C5.57064818,508.180177 4.84256292,507.217923 4.30523137,499.349035 C3.76789982,491.480147 4.26093984,490.095885 8.72991292,490.095961 C13.1988097,490.095961 18.7315031,490.09571 21.1958682,490.095961 C23.6602333,490.096212 25.8064309,490.464927 23.7180445,496.203778 C22.325888,500.02968 20.3257019,504.145733 17.7174862,508.551938 Z" id="Shape" fill="url(#linearGradient-23)"></path>
            <path d="M43.9542606,490.131836 L43.9542606,511.759743 L21.6559684,511.759743 L18.9202872,524.44491 C14.6469776,515.269354 14.3154879,504.744554 18.0029129,495.318266 L20.0317679,490.131836 L43.9542606,490.131836 Z" id="Shape" fill="#F4B696"></path>
            <circle id="Shape" fill="#FFFFFF" opacity="0.5" cx="390.326941" cy="164" r="127"></circle>
            <path d="M119.272868,216.080013 C123.344913,205.515699 126.188407,197.551009 127.803352,192.185941 C129.418297,186.820874 130.938358,180.844845 132.363533,174.257854 C130.253712,161.270046 133.472753,152.675495 142.020655,148.4742 C154.842508,142.172259 177.708127,146.784231 184.174684,152.137525 C190.641241,157.49082 194.766543,169.042927 187.081821,186.152411 L190.266443,196.964048 C188.060715,199.039904 185.754809,199.680792 183.348725,198.886712 C180.394207,204.762701 178.177522,208.496174 176.698671,210.087133 C174.480394,212.473571 169.474016,219.493963 155.846314,214.902736 L147.207433,224.436782 C154.973315,233.706259 155.944052,241.612283 150.119647,248.154854 C144.295241,254.697425 133.110523,252.427977 116.565495,241.34651 L119.272868,216.080013 Z" id="Shape" fill="#F4B696"></path>
            <path d="M379.326941,346 C285.438534,346 209.326941,269.888407 209.326941,176 C209.326941,82.1115925 285.438534,6 379.326941,6 C473.215349,6 549.326941,82.1115925 549.326941,176 C549.326941,269.888407 473.215349,346 379.326941,346 Z M379.326941,306 C451.123959,306 509.326941,247.797017 509.326941,176 C509.326941,104.202983 451.123959,46 379.326941,46 C307.529924,46 249.326941,104.202983 249.326941,176 C249.326941,247.797017 307.529924,306 379.326941,306 Z" id="Shape" fill="url(#linearGradient-24)"></path>
            <path d="M18.2698472,346.319705 L102.779577,369.912598 L96.0471769,393.799129 C123.99934,413.2461 148.037651,430.494623 168.162108,445.5447 C176.676149,451.911927 182.541605,460.109992 185.758474,470.138896 C187.266996,474.841859 187.813491,479.800342 187.365402,484.718951 C185.521314,504.96126 167.616751,519.875965 147.374441,518.031877 L34.1304011,514.294686 L34.1304011,487.628149 L131.269144,479.064849 L43.3419384,456.575793 C40.4741059,455.84229 37.6670837,454.888806 34.9458187,453.723814 C5.70142506,441.204092 -7.85660016,407.347587 4.66312177,378.103193 L18.2698472,346.319705 Z" id="Shape" fill="url(#linearGradient-25)"></path>
            <path d="M211.790306,340.142382 L229.039849,339.155642 C229.146415,340.799672 228.464814,342.081125 226.995047,343 C225.525279,343.918875 223.364221,344.709656 220.511871,345.372343 L246.131839,349.003078 C245.271214,359.932196 241.062727,365.920689 233.506381,366.968556 C225.950035,368.016422 215.596639,366.345534 202.446194,361.955892 L211.790306,340.142382 Z" id="Shape" fill="#F4B696"></path>
            <path d="M383.326941,340 C289.438534,340 213.326941,263.888407 213.326941,170 C213.326941,76.1115925 289.438534,0 383.326941,0 C477.215349,0 553.326941,76.1115925 553.326941,170 C553.326941,263.888407 477.215349,340 383.326941,340 Z M383.326941,300 C455.123959,300 513.326941,241.797017 513.326941,170 C513.326941,98.2029825 455.123959,40 383.326941,40 C311.529924,40 253.326941,98.2029825 253.326941,170 C253.326941,241.797017 311.529924,300 383.326941,300 Z" id="Shape" fill="url(#linearGradient-26)"></path>
            <path d="M15.0220858,353.255792 L69.8408313,240.365809 C84.3560405,218.058261 106.494285,210.422121 136.255566,217.457388 C166.016847,224.492654 170.889962,257.805062 150.87491,317.39461 L212.605349,337.66022 L204.241895,365.872022 L131.788909,357.67389 C122.894897,356.667523 115.876172,349.649069 114.869461,340.755096 L114.103741,333.99021 L101.18833,375.784775 L15.0220858,353.255792 Z" id="Shape" fill="url(#linearGradient-27)"></path>
            <path d="M199.318618,152.399708 C199.318618,166.402118 194.062654,173.403323 183.550726,173.403323 C167.782834,173.403323 159.573005,178.272005 159.573005,191.89433 C159.573005,205.516655 161.741511,233.936645 134.747852,233.936645 C107.754192,233.936645 68.3795965,245.507713 54.0240419,274.27999 C39.7641066,255.075973 40.6830365,239.520255 56.7808315,227.612837 C80.927524,209.751709 103.80023,192.991609 106.888171,168.939833 C109.976113,144.888057 129.936309,127.881931 149.415336,130.824227 C168.894362,133.766523 176.291725,135.269976 187.805172,135.269976 C195.480803,135.269976 199.318618,140.979887 199.318618,152.399708 Z" id="Shape" fill="url(#linearGradient-28)"></path>
            <path d="M61.0724375,371.57107 L62.0121734,371.912971 L59.6188661,378.491123 L58.6791302,378.149222 L61.0724375,371.57107 Z M55.2601198,387.546582 L56.1998557,387.888483 L53.8065484,394.466634 L52.8668125,394.124733 L55.2601198,387.546582 Z M49.7326378,403.704751 L50.7183395,403.87325 C50.3306521,406.141173 50.3510694,408.448647 50.7690806,410.697124 L49.7859261,410.879901 C49.3464429,408.515926 49.3249734,406.089536 49.7326378,403.704751 Z M54.0531369,420.100212 L54.8285155,419.468715 C56.268936,421.237325 58.0131279,422.743731 60.001004,423.920097 L59.4917255,424.780699 C57.4018763,423.543988 55.5677225,421.959885 54.0531369,420.100212 Z M68.4827094,429.378504 L68.9340229,428.486138 L75.1805814,431.645332 L74.729268,432.537698 L68.4827094,429.378504 Z M83.6529231,437.050832 L84.1042365,436.158466 L90.350795,439.31766 L89.8994816,440.210026 L83.6529231,437.050832 Z M98.8231367,444.72316 L99.2744501,443.830794 L105.521009,446.989988 L105.069695,447.882354 L98.8231367,444.72316 Z M113.99335,452.395488 L114.444664,451.503123 L120.691222,454.662316 L120.239909,455.554682 L113.99335,452.395488 Z M129.163564,460.067816 L129.614877,459.175451 L135.861436,462.334645 L135.410123,463.22701 L129.163564,460.067816 Z M144.333778,467.740144 L144.785091,466.847779 L151.03165,470.006973 L150.580336,470.899338 L144.333778,467.740144 Z M159.389562,475.423901 L159.999646,474.631565 C161.701482,475.941948 162.245193,478.29378 161.261513,480.234033 L160.506998,481.678643 L159.620616,481.215689 L160.372358,479.776468 C161.13509,478.271959 160.712078,476.442215 159.389562,475.423901 Z M154.778779,489.860574 L155.575256,490.465243 C154.118227,492.38446 152.350535,494.041202 150.34898,495.370083 L149.795862,494.536979 C151.704287,493.26993 153.389656,491.690344 154.778779,489.860574 Z M140.692475,497.834291 L140.800958,498.828389 C140.329576,498.87983 139.855965,498.91573 139.380499,498.935966 L133.765405,499.171957 L133.723414,498.172839 L139.338242,497.936859 C139.791393,497.917573 140.243005,497.88334 140.692475,497.834291 Z M123.732234,498.592743 L123.774225,499.591861 L116.780399,499.885794 L116.738408,498.886676 L123.732234,498.592743 Z M106.747228,499.306579 L106.789218,500.305697 L99.7953924,500.59963 L99.753402,499.600512 L106.747228,499.306579 Z M89.7622218,500.020416 L89.8042122,501.019534 L82.8103861,501.313466 L82.7683957,500.314348 L89.7622218,500.020416 Z M72.7772156,500.734252 L72.819206,501.73337 L65.8253798,502.027303 L65.7833895,501.028185 L72.7772156,500.734252 Z M55.7922093,501.448089 L55.8341997,502.447207 L48.8403736,502.741139 L48.7983832,501.742021 L55.7922093,501.448089 Z" id="Shape" fill="#A587FF" fill-rule="nonzero"></path>
        </g>
    </g>
</svg>